<svg height="11" viewBox="0 0 11 11" width="11" xmlns="http://www.w3.org/2000/svg" xmlns:xlink="http://www.w3.org/1999/xlink"><defs><rect id="a" height="280" rx="4" width="288"/><filter id="b" height="115.4%" width="114.9%" x="-7.5%" y="-5.2%"><feOffset dx="0" dy="7" in="SourceAlpha" result="shadowOffsetOuter1"/><feGaussianBlur in="shadowOffsetOuter1" result="shadowBlurOuter1" stdDeviation="6"/><feColorMatrix in="shadowBlurOuter1" type="matrix" values="0 0 0 0 0.180392157   0 0 0 0 0.192156863   0 0 0 0 0.203921569  0 0 0 0.3 0"/></filter><path id="c" d="m7.33342739 5.2745-2.482 2.188c-.0955.084-.214.128-.3425.128-.0855 0-.2485-.021-.379-.163-.0865-.0935-.13-.213-.1235-.3365.006-.1245.0625-.2405.1595-.3255l2.4825-2.188c.094-.0825.2155-.1275.342-.1275.0855 0 .249.0215.3795.163.086.0935.13.213.1235.336-.0075.1275-.065.242-.16.3255zm.405-1c-.1895-.206-.462-.3245-.748-.3245-.2485 0-.4875.0895-.672.2525l-2.4835 2.188c-.198.1745-.3145.414-.328.674-.0135.259.0765.508.2545.701.19.207.4625.325.7475.325.249 0 .488-.09.6725-.2525l2.4825-2.188c.1985-.175.315-.4145.3285-.675.014-.2585-.0765-.507-.254-.7005zm-.207 3.5985-1.1495 1.0135c-.515.4535-1.18.7035-1.8725.7035-.7015 0-1.373-.255-1.8905-.7185l-.105-.094.434-.382.0825.073c.407.3575.9325.554 1.479.554.547 0 1.0725-.1975 1.479-.556l1.153-1.016zm2.96400001-2.7715c-.0475.915-.458 1.757-1.15450001 2.371l-2.485 2.19c-.645.567-1.478.8795-2.346.8795-.995 0-1.9465-.4135-2.611-1.135-.6245-.6795-.942-1.555-.8945-2.4665.0475-.914.4565-1.7555 1.151-2.3695l2.4865-2.191c.6445-.5685 1.4785-.882 2.348-.882.9945 0 1.946.414 2.61 1.136.62500001.679.94350001 1.5555.89550001 2.4675zm-3.50650001-4.1015c-.992 0-1.943.357-2.678 1.0045l-2.4855 2.1915c-.7965.7035-1.2655 1.669-1.32 2.719-.055 1.0465.3095 2.052 1.026 2.83.7565.823 1.843 1.295 2.9795 1.295.99 0 1.9405-.356 2.6755-1.0025l2.485-2.19c.79800001-.7035 1.26800001-1.6695 1.32350001-2.72.055-1.0465-.3095-2.0525-1.02600001-2.832-.758-.8235-1.844-1.2955-2.98-1.2955z"/><mask id="d" fill="#fff"><use fill="#fff" fill-rule="evenodd" xlink:href="#a"/></mask><mask id="e" fill="#fff"><use fill="#fff" fill-rule="evenodd" xlink:href="#c"/></mask></defs><g fill="none" fill-rule="evenodd" transform="translate(-65 -225)"><use fill="#000" filter="url(#b)" xlink:href="#a"/><use fill="#fff" fill-rule="evenodd" xlink:href="#a"/><g mask="url(#d)"><g transform="translate(65 224)"><path d="m0 0h12v12h-12z"/><g fill="#2e3134"><use xlink:href="#c"/><g mask="url(#e)"><path d="m0 0h12v12h-12z"/></g></g></g></g></g></svg>