<svg height="10" viewBox="0 0 10 10" width="10" xmlns="http://www.w3.org/2000/svg" xmlns:xlink="http://www.w3.org/1999/xlink"><defs><rect id="a" height="280" rx="4" width="288"/><filter id="b" height="115.4%" width="114.9%" x="-7.5%" y="-5.2%"><feOffset dx="0" dy="7" in="SourceAlpha" result="shadowOffsetOuter1"/><feGaussianBlur in="shadowOffsetOuter1" result="shadowBlurOuter1" stdDeviation="6"/><feColorMatrix in="shadowBlurOuter1" type="matrix" values="0 0 0 0 0.180392157   0 0 0 0 0.192156863   0 0 0 0 0.203921569  0 0 0 0.3 0"/></filter><path id="c" d="m10 6.5c0-2.2055-1.7945-4-4-4s-4 1.7945-4 4 1.7945 4 4 4 4-1.7945 4-4zm.5 0c0 2.481-2.019 4.5-4.5 4.5s-4.5-2.019-4.5-4.5 2.019-4.5 4.5-4.5c1.107 0 2.1205.404 2.9055 1.0695l.7155-.716.354.3535-.708.708c.762.8065 1.233 1.8905 1.233 3.085zm-6-5h3v-.5h-3zm1.25 5.5h.5v-3h-.5z"/><mask id="d" fill="#fff"><use fill="#fff" fill-rule="evenodd" xlink:href="#a"/></mask><mask id="e" fill="#fff"><use fill="#fff" fill-rule="evenodd" xlink:href="#c"/></mask></defs><g fill="none" fill-rule="evenodd" transform="translate(-17 -225)"><use fill="#000" filter="url(#b)" xlink:href="#a"/><use fill="#fff" fill-rule="evenodd" xlink:href="#a"/><g mask="url(#d)"><g transform="translate(16 224)"><path d="m0 0h12v12h-12z"/><g fill="#2e3134"><use xlink:href="#c"/><g mask="url(#e)"><path d="m0 0h12v12h-12z"/></g></g></g></g></g></svg>